<?xml version="1.0" encoding="UTF-8" standalone="no"?>
<svg
   xmlns:dc="http://purl.org/dc/elements/1.1/"
   xmlns:cc="http://creativecommons.org/ns#"
   xmlns:rdf="http://www.w3.org/1999/02/22-rdf-syntax-ns#"
   xmlns:svg="http://www.w3.org/2000/svg"
   xmlns="http://www.w3.org/2000/svg"
   xmlns:sodipodi="http://sodipodi.sourceforge.net/DTD/sodipodi-0.dtd"
   xmlns:inkscape="http://www.inkscape.org/namespaces/inkscape"
   viewBox="0 0 1200 1199.9999"
   height="1200"
   width="1200"
   xml:space="preserve"
   id="svg2"
   version="1.1"
   sodipodi:docname="ogi-ogham-logo.svg"
   inkscape:version="0.92.1 r15371"><sodipodi:namedview
     pagecolor="#ffffff"
     bordercolor="#666666"
     borderopacity="1"
     objecttolerance="10"
     gridtolerance="10"
     guidetolerance="10"
     inkscape:pageopacity="0"
     inkscape:pageshadow="2"
     inkscape:window-width="1920"
     inkscape:window-height="1027"
     id="namedview4598"
     showgrid="false"
     fit-margin-top="0"
     fit-margin-left="0"
     fit-margin-right="0"
     fit-margin-bottom="0"
     inkscape:zoom="0.4981409"
     inkscape:cx="181.20739"
     inkscape:cy="548.75962"
     inkscape:window-x="-8"
     inkscape:window-y="-8"
     inkscape:window-maximized="1"
     inkscape:current-layer="svg2" /><metadata
     id="metadata8"><rdf:RDF><cc:Work
         rdf:about=""><dc:format>image/svg+xml</dc:format><dc:type
           rdf:resource="http://purl.org/dc/dcmitype/StillImage" /><dc:title></dc:title></cc:Work></rdf:RDF></metadata><defs
     id="defs6"><clipPath
       id="clipPath20"
       clipPathUnits="userSpaceOnUse"><path
         id="path18"
         d="M 0,14670 V 0 h 7298.51 v 14670 z"
         inkscape:connector-curvature="0" /></clipPath><clipPath
       clipPathUnits="userSpaceOnUse"
       id="clipPath5167"><rect
         style="opacity:1;fill:#ff8080;fill-opacity:1;fill-rule:evenodd;stroke:none;stroke-width:1.40598428;stroke-miterlimit:4;stroke-dasharray:none;stroke-opacity:1"
         id="rect5169"
         width="1073.1356"
         height="1183.856"
         x="472.6907"
         y="-1562.8604"
         transform="scale(1,-1)" /></clipPath><clipPath
       clipPathUnits="userSpaceOnUse"
       id="clipPath5197"><rect
         style="opacity:1;fill:#ff8080;fill-opacity:1;fill-rule:evenodd;stroke:none;stroke-width:1.40598428;stroke-miterlimit:4;stroke-dasharray:none;stroke-opacity:1"
         id="rect5199"
         width="794.95581"
         height="629.34003"
         x="593.13855"
         y="-1441.9567"
         transform="scale(1,-1)" /></clipPath></defs><g
     transform="matrix(1.3333333,0,0,-1.3333333,-720.82191,1943.0057)"
     id="g10"
     clip-path="url(#clipPath5197)"><g
       transform="scale(0.274029)"
       id="g12"><g
         id="g14"><g
           clip-path="url(#clipPath20)"
           id="g16"><path
             id="path22"
             style="fill:#f5f014;fill-opacity:1;fill-rule:nonzero;stroke:none"
             d="m 7298.51,0 c -4865.6733,0 -2432.8367,0 0,0 z"
             inkscape:connector-curvature="0"
             sodipodi:nodetypes="cc" /><path
             id="path24"
             style="fill:#26285e;fill-opacity:1;fill-rule:nonzero;stroke:none"
             d="M 0,7371.49 H 7298.51 V 14670 H 0 Z"
             inkscape:connector-curvature="0" /><path
             id="path26"
             style="fill:#ffffff;fill-opacity:1;fill-rule:nonzero;stroke:none"
             d="m 3370.39,10649.7 c -49.86,-51.4 -74.79,-115.3 -74.79,-191.6 0,-76.3 24.93,-140.3 74.79,-192.1 49.86,-51.7 112.34,-77.5 187.44,-77.5 74.48,0 136.67,25.8 186.53,77.5 49.84,51.8 74.77,115.8 74.77,192.1 0,75.7 -25.08,139.4 -75.25,191.2 -50.18,51.7 -112.18,77.5 -186.05,77.5 -75.1,0 -137.58,-25.7 -187.44,-77.1 z m 408.12,30.9 c 60.94,-60.3 91.42,-134.8 91.42,-223.4 0,-88 -30.48,-162.4 -91.42,-223 -60.94,-60.6 -134.81,-91 -221.6,-91 -87.41,0 -161.28,30.4 -221.61,91 -60.32,60.6 -90.49,135 -90.49,223 0,88.6 30.17,163.1 90.49,223.4 60.33,60.4 134.2,90.5 221.61,90.5 86.79,0 160.66,-30.1 221.6,-90.5"
             inkscape:connector-curvature="0" /><path
             id="path28"
             style="fill:#ffffff;fill-opacity:1;fill-rule:nonzero;stroke:none"
             d="m 4787.71,10739.3 c 42.48,-21.3 77.58,-51 105.28,-89.1 l -36.02,-28.6 c -51.08,70.1 -120.02,105.2 -206.83,105.2 -75.11,0 -137.58,-25.7 -187.43,-77.1 -49.89,-51.4 -74.81,-115.3 -74.81,-191.6 0,-77 24.92,-141.3 74.81,-193 49.85,-51.7 112.94,-77.5 189.29,-77.5 47.4,0 90.46,10.8 129.25,32.3 38.79,21.5 69.56,50.8 92.37,87.7 v 100.7 h -224.4 v 44.3 h 272.38 v -155.2 c -26.46,-48 -64.01,-85.7 -112.65,-113.1 -48.61,-27.4 -101.85,-41.1 -159.73,-41.1 -87.4,0 -161.29,30.4 -221.61,91 -60.33,60.6 -90.47,135 -90.47,223 0,88.6 30.14,163.1 90.47,223.4 60.32,60.4 134.21,90.5 221.61,90.5 49.85,0 96.01,-10.6 138.49,-31.8"
             inkscape:connector-curvature="0" /><path
             id="path30"
             style="fill:#ffffff;fill-opacity:1;fill-rule:nonzero;stroke:none"
             d="m 5435.89,10152.5 h 48.0273 v 609.426 H 5435.89 Z"
             inkscape:connector-curvature="0" /><path
             id="path32"
             style="fill:#ffffff;fill-opacity:1;fill-rule:nonzero;stroke:none"
             d="m 2728.59,10645.3 -81.89,-15.1 c -7.13,-1.3 -13.97,3.4 -15.29,10.5 l -73.05,395.4 c -1.31,7.2 3.39,14 10.52,15.3 l 280.19,51.8 c 7.14,1.3 13.98,-3.4 15.29,-10.5 l 55.71,-303.8 c 2.83,-1.2 4.56,5.4 7.27,4 1.06,0.2 2.1,0.5 3.17,0.7 l -57.55,311.6 c -1.32,7.1 -8.16,11.8 -15.29,10.5 l -301.26,-55.7 c -7.13,-1.3 -11.84,-8.1 -10.52,-15.3 l 76.94,-416.5 c 1.32,-7.1 8.16,-11.8 15.29,-10.5 l 93.22,17.2 c -1.01,3.4 -1.98,6.9 -2.75,10.4"
             inkscape:connector-curvature="0" /><path
             id="path34"
             style="fill:#ffffff;fill-opacity:1;fill-rule:nonzero;stroke:none"
             d="m 2374.64,11579.9 c 1.51,0 3.06,-0.2 4.58,-0.7 5.87,-2 9.65,-7.2 9.65,-13.4 l -0.03,-0.8 c -1.18,-16.3 -1.77,-33.1 -1.77,-50.1 0,-98.7 20.14,-272.6 155.14,-328.3 24.18,-9.9 49.94,-15 76.53,-15 26.6,0 52.34,5.1 76.53,15 134.98,55.7 155.13,229.6 155.13,328.3 0,21.2 -0.95,38.8 -1.75,49.8 l -0.04,1.1 c 0,6.2 3.78,11.4 9.64,13.4 6.23,2.1 12.81,-0.3 16.36,-5.8 10.55,-16.5 23.8,-41.8 39.38,-75.5 11.03,-23.8 44.55,-96.1 63.18,-93.9 6.93,0.8 20.71,14 35.37,92.2 2.36,12.6 3.56,25.4 3.56,38.2 -0.01,87.5 -54.85,157.2 -87.54,191 l -2.85,2.9 0.12,5.2 c 0.01,31.1 -25.33,56.4 -56.47,56.4 -5.12,0 -10.32,-0.7 -15.47,-2.2 l -9.28,-2.6 -2.84,9.2 c -8.76,28.5 -38.14,46.1 -68.82,37.8 l -8.34,-2.3 -3.35,8 c -8.82,21.1 -29.28,34.7 -52.1,34.7 -5.27,0 -10.59,-0.8 -15.79,-2.3 l -7.76,-2.3 -3.73,7.2 c -12.36,23.6 -36.54,38.3 -63.14,38.3 -26.6,0 -50.78,-14.7 -63.13,-38.3 l -3.74,-7.2 -7.76,2.3 c -5.21,1.5 -10.53,2.3 -15.79,2.3 -22.83,0 -43.28,-13.6 -52.11,-34.7 l -3.33,-8 -8.35,2.3 c -30.69,8.3 -60.06,-9.3 -68.82,-37.8 l -2.83,-9.2 -9.29,2.6 c -5.15,1.5 -10.36,2.2 -15.47,2.2 -31.14,0 -56.48,-25.3 -56.48,-56.5 0.03,-0.2 0.06,-0.6 0.06,-1 l 0.07,-4.1 -2.85,-2.9 c -32.69,-33.8 -87.53,-103.5 -87.54,-191 0,-12.8 1.19,-25.6 3.56,-38.2 14.66,-78.2 28.44,-91.4 35.35,-92.2 18.36,-2.2 52.16,70.1 63.19,93.9 15.62,33.7 28.86,59.1 39.4,75.5 2.67,4.2 7.08,6.5 11.76,6.5 z m 244.1,-428 c -29.18,0 -57.47,5.5 -84.06,16.5 -145.61,60.1 -167.34,242.9 -167.34,346.5 0,9.5 0.19,18.8 0.54,28.1 -7.75,-14.2 -16.62,-32 -26.49,-53.4 -32.09,-69.2 -56.16,-108.7 -83.55,-105.2 -23.29,2.9 -38.44,34.2 -52.29,108.1 -2.58,13.8 -3.9,27.9 -3.9,41.9 0.01,92 55.31,164.9 90.31,201.8 1.44,40.7 35.05,73.4 76.16,73.4 3.97,0 7.96,-0.3 11.94,-0.9 12.1,27.3 39.06,45.2 69.63,45.2 3.94,0 7.94,-0.4 11.94,-1 13.32,24.1 38.68,39.3 66.69,39.3 4.56,0 9.14,-0.4 13.68,-1.3 16.63,26.3 45.38,42.2 76.74,42.2 31.37,0 60.12,-15.9 76.74,-42.2 4.54,0.9 9.11,1.3 13.68,1.3 28.01,0 53.37,-15.2 66.69,-39.3 35.03,5.7 67.91,-13.3 81.57,-44.2 3.97,0.6 7.97,0.9 11.94,0.9 41.1,0 74.71,-32.7 76.15,-73.4 35.01,-36.9 90.31,-109.8 90.31,-201.8 0,-14 -1.3,-28.1 -3.89,-41.9 -13.86,-73.9 -29.01,-105.2 -52.3,-108.1 -27.43,-3.6 -51.43,36 -83.54,105.2 -9.87,21.3 -18.73,39.2 -26.5,53.4 0.32,-8.3 0.54,-17.8 0.54,-28.1 0,-103.6 -21.74,-286.4 -167.34,-346.5 -26.58,-11 -54.86,-16.5 -84.05,-16.5"
             inkscape:connector-curvature="0" /><path
             id="path36"
             style="fill:#ffffff;fill-opacity:1;fill-rule:nonzero;stroke:none"
             d="m 2567.06,11591.5 c -0.2,0.6 -0.38,1.2 -0.61,1.7 -6.94,16.8 -23.95,25.8 -38,20 -14.05,-5.8 -19.82,-24.1 -12.88,-41 3.4,-8.2 9.23,-14.5 15.94,-18.2 -0.77,-0.2 -1.52,-0.4 -2.31,-0.6 -13.23,-2.5 -26.9,1.1 -38.46,10.2 -11.87,9.3 -20.1,23.2 -23.18,39.1 -6.27,32.5 11.18,63.3 38.89,68.6 2.79,0.6 5.59,0.8 8.39,0.8 10.5,0 20.94,-3.7 30.08,-10.9 11.87,-9.3 20.1,-23.2 23.17,-39.1 2.02,-10.5 1.6,-20.9 -1.03,-30.6 z m 15.03,33.3 c -3.73,19.3 -13.8,36.2 -28.38,47.6 -14.86,11.7 -32.62,16.3 -49.96,12.9 -35.43,-6.8 -57.94,-45.1 -50.18,-85.3 3.73,-19.3 13.8,-36.2 28.37,-47.7 11.69,-9.1 25.16,-13.9 38.82,-13.9 3.71,0 7.44,0.3 11.14,1 17.35,3.4 32.12,14.2 41.58,30.6 9.28,16 12.33,35.5 8.61,54.8"
             inkscape:connector-curvature="0" /><path
             id="path38"
             style="fill:#ffffff;fill-opacity:1;fill-rule:nonzero;stroke:none"
             d="m 2669.39,11622.1 c 3.07,15.9 11.31,29.8 23.17,39.1 9.14,7.2 19.58,10.9 30.08,10.9 2.8,0 5.6,-0.2 8.38,-0.8 27.72,-5.3 45.17,-36.1 38.89,-68.6 -3.07,-15.9 -11.3,-29.8 -23.17,-39.1 -11.56,-9.1 -25.23,-12.7 -38.46,-10.2 -0.79,0.2 -1.54,0.4 -2.31,0.6 6.71,3.7 12.54,10 15.95,18.2 6.93,16.9 1.16,35.2 -12.89,41 -14.05,5.8 -31.06,-3.2 -37.99,-20 -0.24,-0.5 -0.42,-1.1 -0.63,-1.7 -2.62,9.7 -3.04,20.1 -1.02,30.6 z M 2664,11570 c 9.45,-16.4 24.22,-27.2 41.57,-30.6 3.71,-0.7 7.44,-1 11.15,-1 13.66,0 27.13,4.8 38.82,13.9 14.57,11.5 24.64,28.4 28.37,47.7 7.76,40.2 -14.75,78.5 -50.18,85.3 -17.35,3.4 -35.1,-1.2 -49.97,-12.9 -14.57,-11.4 -24.64,-28.3 -28.36,-47.6 -3.73,-19.3 -0.68,-38.8 8.6,-54.8"
             inkscape:connector-curvature="0" /><path
             id="path40"
             style="fill:#ffffff;fill-opacity:1;fill-rule:nonzero;stroke:none"
             d="m 2619.71,11300.7 v -84.6 c -6.74,-0.7 -13.54,-0.7 -20.28,0 v 84.6 c 0,0 -48.5,13.2 -45.89,43.9 2.61,30.9 56.01,26.9 56.01,26.9 0,0 53.44,4 56.05,-26.9 2.61,-30.7 -45.89,-43.9 -45.89,-43.9"
             inkscape:connector-curvature="0" /><path
             id="path42"
             style="fill:#ffffff;fill-opacity:1;fill-rule:nonzero;stroke:none"
             d="m 2609.55,11205.7 c -3.71,0 -7.41,0.2 -11.09,0.5 -12.14,1.3 -23.73,4.6 -34.5,9.7 -29.38,14.1 -42.21,36.2 -42.75,37.1 l 17.12,9.8 c 0.11,-0.2 10.59,-17.8 34.14,-29.1 8.75,-4.1 18.17,-6.8 28,-7.8 6.01,-0.6 12.18,-0.6 18.28,0 9.8,1 19.22,3.7 27.9,7.8 23.51,11.3 34.03,28.9 34.13,29.1 l 17.14,-9.8 c -0.53,-0.9 -13.36,-23 -42.74,-37.1 -10.71,-5.1 -22.29,-8.4 -34.43,-9.7 -3.73,-0.3 -7.47,-0.5 -11.2,-0.5"
             inkscape:connector-curvature="0" /><path
             id="path44"
             style="fill:#ffffff;fill-opacity:1;fill-rule:nonzero;stroke:none"
             d="m 2539.25,10203.6 h -109.88 c -13.22,0 -23.98,10.7 -23.98,23.9 v 243.7 h 19.73 v -243.7 c 0,-2.3 1.9,-4.2 4.25,-4.2 h 90.16 v 210.5 h 19.72 v -230.2"
             inkscape:connector-curvature="0" /><path
             id="path46"
             style="fill:#ffffff;fill-opacity:1;fill-rule:nonzero;stroke:none"
             d="m 2231.62,10128.1 h 287.93 v 75.5 h -78.33 c -17.29,0 -33.98,5.7 -46.99,16.1 v 0 c -17.79,14.2 -46.63,29.7 -82.96,23.4 -46.15,-8.1 -79.65,-49.2 -79.65,-97.7 z m 307.65,-19.7 h -327.38 v 37 c 0,58.1 40.36,107.3 95.97,117.1 45.88,8 81.52,-13.7 98.68,-27.4 v 0 c 9.53,-7.6 21.84,-11.8 34.68,-11.8 h 98.05 v -114.9"
             inkscape:connector-curvature="0" /><path
             id="path48"
             style="fill:#ffffff;fill-opacity:1;fill-rule:nonzero;stroke:none"
             d="m 2808.1,10203.6 h -109.88 v 230.2 h 19.72 v -210.5 h 90.16 c 2.35,0 4.26,1.9 4.26,4.2 v 243.7 h 19.72 v -243.7 c 0,-13.2 -10.76,-23.9 -23.98,-23.9"
             inkscape:connector-curvature="0" /><path
             id="path50"
             style="fill:#ffffff;fill-opacity:1;fill-rule:nonzero;stroke:none"
             d="m 2717.93,10128.1 h 287.93 v 17.3 c 0,48.5 -33.5,89.6 -79.66,97.7 -36.34,6.4 -65.16,-9.2 -82.96,-23.4 v 0 c -13.01,-10.4 -29.69,-16.1 -46.99,-16.1 h -78.32 z m 307.65,-19.7 H 2698.2 v 114.9 h 98.05 c 12.84,0 25.16,4.2 34.69,11.8 17.16,13.7 52.77,35.5 98.67,27.4 55.61,-9.8 95.97,-59 95.97,-117.1 v -37"
             inkscape:connector-curvature="0" /><path
             id="path52"
             style="fill:#ffffff;fill-opacity:1;fill-rule:nonzero;stroke:none"
             d="m 1931.79,11532.6 c -8.77,13.3 -18.64,25.8 -28.08,36.7 -3.87,4.5 -5.37,10.3 -4.08,16.1 1.25,5.6 4.98,10.1 10.25,12.5 30.06,13.4 71.74,25.9 113.85,19.5 1.57,6.7 4.58,13.1 9.07,18.4 -48.8,9.4 -96.82,-4.7 -130.93,-19.9 -11.03,-4.9 -18.85,-14.4 -21.49,-26.2 -2.67,-11.9 0.41,-24.1 8.43,-33.3 10.1,-11.7 18.71,-22.9 25.86,-33.6 4.49,4.5 10.2,7.9 17.12,9.8"
             inkscape:connector-curvature="0" /><path
             id="path54"
             style="fill:#ffffff;fill-opacity:1;fill-rule:nonzero;stroke:none"
             d="m 2975.53,10979.4 c 7.56,14.6 11.51,30.6 11.51,46.8 0,15.4 -3.48,30.4 -10.02,44.1 24,-6.6 46.52,-13.4 67.2,-20.5 33.69,-11.5 57.46,-39.5 63.58,-74.8 6.09,-35.2 -6.84,-69.4 -34.57,-91.4 -16.56,-13.2 -33.48,-25.7 -50.58,-37.3 1.68,8.7 2.52,17.6 2.52,26.5 0,41.4 -17.98,79.8 -49.64,106.6 z m 302,62.7 c -13.83,47 -49.24,81.5 -102.39,99.7 -33,11.3 -65.43,23.2 -96.8,34.7 -60.68,22.4 -113.39,41.7 -153.69,50.6 -13.54,24.3 -36.36,42.1 -63.24,49.1 -19.73,5.2 -39.5,4.6 -58.79,-1.9 l -3.71,-1.3 -1.84,-3.4 c -4.57,-8.6 -14.74,-20.4 -31.07,-36.2 -34.82,-33.3 -76.66,-54.4 -120.99,-61 -81.06,-12 -152.06,22.1 -194.83,93.5 l -1.54,2.6 -2.69,1.3 c -19.46,9.2 -40.96,12 -62.2,8.2 -14.93,-2.7 -29.41,-8.9 -41.86,-18.1 -6.82,-5 -14.89,-8.3 -24.01,-10 -197.32,-35.1 -230.09,-32.3 -235.44,-30.6 -0.08,0 -8.71,4.2 -6.31,53 1.62,33 7.49,73.8 12.67,109.7 3.29,23 6.14,42.8 7.49,57.6 1.34,14.7 5.77,30.7 10.45,47.5 8.77,31.6 18.82,68.1 4.6,98.2 -4.34,-4.2 -9.81,-7.5 -16.37,-9.3 -0.22,-0.3 -0.39,-0.6 -0.61,-0.8 10.01,-22.9 2.08,-51.5 -6.62,-82.8 -4.71,-17 -9.59,-34.5 -11.09,-51 -1.31,-14.3 -4.26,-34.8 -7.38,-56.5 -15.12,-105.2 -22.79,-174.8 7.18,-184.4 6.79,-2.2 27.45,-8.8 244.9,30 12.1,2.2 22.94,6.7 32.2,13.5 10.04,7.4 21.7,12.4 33.7,14.6 16.21,2.9 32.61,1 47.62,-5.5 47.24,-76.8 124.7,-113.3 213.02,-100.2 48.4,7.2 93.96,30.1 131.78,66.3 16.1,15.5 26.62,27.6 32.72,37.5 14.47,4.2 29.25,4.3 44.01,0.4 22.94,-6 42.19,-21.7 52.84,-43.1 l 3.21,-4.5 3.66,-0.8 c 39.39,-8 95.75,-28.7 155.43,-50.7 31.46,-11.5 64,-23.5 97.21,-34.9 46.83,-16 77.9,-46 89.86,-86.6 16,-54.4 -3.54,-122 -53.64,-185.4 -24.28,-30.7 -81.42,-77.6 -215.75,-126.7 -3.85,-1.4 -6.33,-2.3 -7.25,-2.8 -0.02,0 -12.11,-5.5 -18.3,-8.2 -39.04,-16.9 -78.64,-31 -117.68,-42 l -6.2,-1.7 -0.9,-6.4 c -5.17,-36.9 -27.68,-52.1 -47.02,-54.1 -21.37,-2.2 -48.4,10.6 -60.44,44.1 -13.35,37.2 -11.84,76.7 4.05,105.8 8.4,15.4 19.72,25.4 31.89,28.2 33.81,7.9 74.26,-28.3 74.67,-28.6 l 4.01,-3.7 5.21,1.5 c 7.97,2.2 17.22,4.4 27.17,6.9 38.96,9.5 87.4,21.3 116.26,41.7 5.44,3.2 10.8,6.5 16.02,9.9 25.26,15.8 50.43,33.7 74.8,53.1 33.46,26.7 49.06,67.9 41.72,110.3 -7.36,42.5 -36,76.2 -76.64,90.1 -28.1,9.6 -59.5,18.8 -93.31,27.4 l -10.8,-14.7 2.82,-3.6 c 11.64,-14.5 18.01,-32.7 18.01,-51.4 0,-15.4 -4.45,-30.6 -12.87,-44 l -4.86,-7.6 7.28,-5.5 c 30.87,-23.2 48.59,-58.3 48.59,-96.3 0,-14.8 -2.69,-29.3 -7.98,-42.9 -4.38,-2.7 -8.81,-5.4 -13.27,-8.1 l -0.62,-0.4 c -25.75,-18.3 -72.37,-29.7 -109.84,-38.9 -8.1,-2 -15.76,-3.8 -22.65,-5.7 -12.63,10.3 -51.27,38.2 -88.15,29.8 -17.73,-4.1 -33.64,-17.6 -44.78,-38 -18.54,-34 -20.52,-79.6 -5.29,-121.9 13.54,-37.8 46.11,-60.8 81.01,-57.1 25.56,2.6 54.97,21 63.47,64.5 37.94,11 76.31,24.8 114.15,41.2 1.41,0.6 3.13,1.4 4.94,2.2 -2.56,-35.9 -28,-65.9 -63.62,-74.2 l -9.38,-2.1 1.94,-9.5 c 1.14,-5.4 1.71,-11.1 1.71,-16.6 0,-42.3 -31.96,-77.4 -74.36,-81.7 l -7.52,-0.7 -1.23,-7.5 c -6.6,-39.9 -40.7,-68.9 -81.07,-68.9 -11.73,0 -23.35,2.6 -34.53,7.8 l -7.42,3.4 -4.75,-6.7 c -17.55,-24.7 -45.88,-39.4 -75.79,-39.4 -30.64,0 -59.35,15.2 -76.82,40.5 l -4.87,7.1 -7.67,-3.9 c -11.79,-5.8 -24.06,-8.8 -36.48,-8.8 -40.41,0 -74.53,29 -81.14,68.9 l -1.23,7.5 -7.51,0.7 c -42.36,4.3 -74.3,39.4 -74.3,81.7 0,5.5 0.56,11.1 1.66,16.7 l 1.82,9.4 -9.27,2.1 c -37.59,8.7 -63.84,41.7 -63.84,80.2 0,21.1 8.15,41.3 22.94,56.9 l 7.76,8.2 -9.15,6.6 c -31.53,22.7 -50.35,59.3 -50.35,97.6 0,38 17.74,73.1 48.66,96.3 l 7.28,5.4 -4.86,7.7 c -8.47,13.5 -12.94,28.7 -12.94,44 0,21.7 8.4,42.2 23.66,57.7 4.12,4.2 5.17,10.4 2.68,15.6 -2.46,5.3 -7.79,8.3 -13.52,7.8 -131.84,-11.3 -297.5,-16.4 -330.52,6.8 -54.41,38.1 -17.46,219.7 -1.69,297.3 1.58,7.7 2.98,14.6 4.19,20.7 -5.48,-6.1 -13.01,-10.6 -22.58,-12.2 -0.31,-1.5 -0.6,-3 -0.93,-4.6 -19.34,-95 -55.31,-271.9 9.69,-317.4 43.33,-30.3 234.26,-19.2 328.97,-11.5 -12.77,-17.4 -19.67,-38.3 -19.67,-60.2 0,-16.2 3.97,-32.2 11.56,-46.8 -31.69,-26.8 -49.7,-65.2 -49.7,-106.6 0,-41.1 18.55,-80.4 50.12,-107 -13.82,-17.9 -21.32,-39.7 -21.32,-62.3 0,-44.6 28.46,-83.3 70.27,-96.9 -0.43,-3.9 -0.64,-7.7 -0.64,-11.5 0,-50.1 35.95,-92 84.76,-100.3 10.92,-45.8 51.51,-78.3 99.14,-78.3 12.84,0 25.49,2.6 37.73,7.6 21.39,-26.7 53.75,-42.4 88.11,-42.4 33.65,0 65.63,15.3 87.04,41.4 11.53,-4.4 23.42,-6.6 35.45,-6.6 47.6,0 88.16,32.5 99.07,78.3 48.85,8.3 84.83,50.2 84.83,100.3 0,3.8 -0.21,7.7 -0.65,11.5 41.77,13.6 70.22,52.3 70.22,96.9 0,0.8 -0.01,1.7 -0.03,2.5 138.4,50.6 198.26,100.2 224.1,132.9 54.11,68.4 74.92,142.5 57.08,203.2"
             inkscape:connector-curvature="0" /><path
             id="path56"
             style="fill:#ffffff;fill-opacity:1;fill-rule:nonzero;stroke:none"
             d="m 2065.58,11657.3 c 16.41,-16.4 32.8,-32.8 49.01,-49 3.19,3.2 6.22,6.2 9.23,9.1 -16.33,16.4 -32.71,32.7 -49.05,49.1 -3.02,-3 -6.04,-6.1 -9.19,-9.2 z m -232.77,-281.9 c 0.86,0.2 1.36,0.3 1.85,0.5 9.48,2.5 18.97,5 28.45,7.5 9.75,2.5 19.51,5.1 29.27,7.6 1.05,0.3 1.26,0.7 0.96,1.7 -0.8,2.5 -1.48,5 -2.41,7.5 -4.72,12.5 -12.9,22.1 -24.65,28.7 -5.17,2.8 -10.67,4.9 -16.46,6.1 -0.95,0.2 -1.48,0.1 -1.68,-1 -0.23,-1.3 -0.62,-2.5 -0.94,-3.7 -2.29,-8.7 -4.59,-17.4 -6.87,-26 -2.06,-7.9 -4.1,-15.7 -6.15,-23.5 -0.43,-1.7 -0.86,-3.4 -1.37,-5.4 z m 301.87,252.6 c 0.59,0.6 0.85,0.8 1.11,1 3.12,3.2 6.26,6.3 9.34,9.4 3.39,3.5 7.01,6.7 10.03,10.5 5.87,7.3 7.58,15.9 6.1,25 -1.36,8.4 -5.4,15.4 -11.7,21 -7.57,6.9 -16.44,10.1 -26.64,9.3 -6.81,-0.5 -13.01,-2.8 -18,-7.5 -6.39,-6.1 -12.47,-12.4 -18.71,-18.6 -0.62,-0.6 -0.38,-0.9 0.12,-1.4 10.83,-10.8 21.64,-21.6 32.46,-32.4 4.55,-4.6 9.1,-9.1 13.63,-13.7 0.78,-0.8 1.46,-1.7 2.26,-2.6 z m -277.49,-179.3 c 24.83,-7.4 41.91,-23 49.76,-48 65.68,65.6 131.23,131.2 196.71,196.7 -16.25,16.2 -32.63,32.6 -48.92,48.9 -65.77,-65.8 -131.63,-131.7 -197.55,-197.6 z m -42.6,-81.8 c 0.32,0.8 0.72,1.7 0.96,2.6 1.53,5.7 3,11.5 4.52,17.3 3.73,14.2 7.47,28.3 11.19,42.5 1.63,6.2 3.16,12.4 4.9,18.6 0.42,1.4 1.27,2.9 2.33,4 31.54,31.6 63.13,63.2 94.71,94.8 34.08,34 68.15,68.1 102.22,102.2 19.22,19.2 38.39,38.5 57.67,57.6 7.8,7.7 17.41,11.8 28.29,12.8 10.32,0.9 20.08,-1.1 29.12,-6.3 10.09,-5.8 17.54,-14 22.23,-24.7 3.13,-7.1 4.54,-14.6 4.13,-22.4 -0.5,-9.4 -3.39,-18.1 -9.07,-25.7 -3.55,-4.8 -8.01,-8.7 -12.19,-12.9 -25.36,-25.4 -50.78,-50.8 -76.17,-76.2 -22.42,-22.4 -44.84,-44.8 -67.27,-67.2 -14.32,-14.3 -28.66,-28.6 -42.99,-43 -14.83,-14.8 -29.66,-29.6 -44.49,-44.5 -5.11,-5.1 -10.22,-10.2 -15.3,-15.3 -1.22,-1.3 -2.63,-2 -4.29,-2.5 -11.07,-2.8 -22.14,-5.7 -33.2,-8.6 -11.8,-3.1 -23.58,-6.2 -35.37,-9.4 -4.07,-1 -8.11,-2.2 -12.23,-3.1 -2.94,-0.6 -6.2,-0.3 -7.96,2.4 -0.62,0.9 -0.86,2.1 -1.28,3.2 -0.15,0.4 -0.31,0.7 -0.46,1.1 0,0.9 0,1.8 0,2.7"
             inkscape:connector-curvature="0" /><path
             id="path58"
             style="fill:#ffffff;fill-opacity:1;fill-rule:nonzero;stroke:none"
             d="m 2063.38,11603 c 3.27,-0.1 5.66,-1.6 6.97,-4.5 1.32,-2.9 0.97,-5.8 -1.27,-8.2 -4.7,-4.9 -9.55,-9.6 -14.36,-14.5 -41.74,-41.7 -83.49,-83.4 -125.23,-125.2 -2.65,-2.7 -5.6,-3.9 -9.25,-2.4 -4.82,1.8 -6.24,8.5 -2.57,12.1 14.85,14.9 134.68,134.7 140.5,140.5 1.45,1.5 3.26,2.1 5.21,2.2"
             inkscape:connector-curvature="0" /><path
             id="path60"
             style="fill:#ffffff;fill-opacity:1;fill-rule:nonzero;stroke:none"
             d="m 2768.59,11053.6 -100.19,-18.9 c -2.83,-0.6 -5.56,1.3 -6.1,4.1 v 0 c -0.53,2.9 1.33,5.6 4.16,6.1 l 100.19,19 c 2.83,0.5 5.57,-1.3 6.1,-4.1 v 0 c 0.54,-2.9 -1.32,-5.6 -4.16,-6.2"
             inkscape:connector-curvature="0" /><path
             id="path62"
             style="fill:#100f0d;fill-opacity:1;fill-rule:nonzero;stroke:none"
             d="m 3011.46,2836.13 c -857.6627,-968.6993 -428.8313,-484.3496 0,0 z"
             inkscape:connector-curvature="0"
             sodipodi:nodetypes="cc" /><path
             id="path68"
             style="fill:#100f0d;fill-opacity:1;fill-rule:nonzero;stroke:none"
             d="m 3806.1,4411.55 c 0,0 0,0 0,-0.04 0,0.04 0,0.04 0,0.04 z m -492.94,0 c 0,-0.04 -0.01,-0.04 -0.02,-0.08 0.01,0.04 0.02,0.04 0.02,0.08 z m 11.66,13.94 c 2.55,0 5.13,-0.55 7.54,-1.76 7.43,-3.61 11.21,-12.04 9,-19.99 -13.47,-48.97 -75.68,-300.23 23.86,-433.2 41.43,-55.36 106.85,-84.23 194.42,-85.8 87.57,1.57 152.97,30.44 194.42,85.76 99.55,132.98 37.33,384.27 23.83,433.27 -2.19,7.96 1.61,16.35 9.05,20 7.45,3.61 16.38,1.43 21.31,-5.22 59.19,-80.57 117.73,-132.57 149.18,-132.57 22.66,0 45,22.18 54.3,53.97 9.42,32.22 4.86,76.05 -36.27,102.36 -41.2,26.35 -117.43,52 -159.22,64.96 -10.51,3.28 -18.57,11.12 -22.08,21.53 -3.53,10.43 -1.78,22 4.64,31.02 8.25,11.6 12.59,25.25 12.59,39.52 0,31.64 -22.37,59.59 -53.21,66.49 l -10.69,2.4 -0.73,10.91 c -2.37,35.59 -32.22,63.5 -67.98,63.5 -8.21,0 -16.28,-1.46 -23.94,-4.34 l -16.28,-6.09 -3.24,17.08 c -6.86,36.27 -38.68,62.58 -75.68,62.58 -37,0 -68.83,-26.31 -75.7,-62.58 l -3.23,-17.08 -16.28,6.09 c -7.66,2.88 -15.72,4.34 -23.95,4.34 -35.74,0 -65.6,-27.91 -67.98,-63.5 l -0.73,-10.91 -10.68,-2.4 c -30.83,-6.9 -53.21,-34.85 -53.21,-66.49 0,-14.27 4.35,-27.92 12.6,-39.49 6.42,-9.01 8.15,-20.62 4.64,-31.05 -3.52,-10.41 -11.57,-18.25 -22.09,-21.53 -41.79,-12.96 -118.03,-38.61 -159.21,-64.96 -41.12,-26.31 -45.7,-70.14 -36.27,-102.36 9.3,-31.79 31.63,-53.97 54.3,-53.97 31.43,0 89.96,52 149.11,132.5 3.36,4.56 8.56,7.01 13.86,7.01 z m 234.82,-570.02 -0.26,0.04 c -97.2,1.68 -170.41,34.45 -217.58,97.47 -86.03,114.95 -63.63,300.92 -41.82,404.05 -40.68,-48.54 -94.34,-100.32 -138.13,-100.32 -36.15,0 -69.25,30.14 -82.38,75.03 -11.83,40.47 -6.22,100.13 48.58,135.2 44.08,28.21 123.12,54.89 166.31,68.28 1.89,0.58 2.69,1.93 3.04,2.96 0.31,0.91 0.63,2.73 -0.75,4.67 -11.79,16.56 -18.03,36.09 -18.03,56.49 0,41.67 27.18,78.89 65.95,92.18 8.11,45.83 48.38,80.36 95.91,80.36 6.36,0 12.66,-0.59 18.83,-1.83 14.7,42 54.67,71.09 100.33,71.09 45.66,0 85.62,-29.09 100.31,-71.09 6.2,1.24 12.48,1.83 18.83,1.83 47.55,0 87.8,-34.53 95.93,-80.36 38.76,-13.29 65.95,-50.51 65.95,-92.18 0,-20.4 -6.24,-39.93 -18.03,-56.49 -1.39,-1.94 -1.06,-3.76 -0.77,-4.67 0.37,-1.03 1.17,-2.38 3.07,-2.96 43.17,-13.39 122.21,-40.07 166.3,-68.28 54.77,-35.07 60.39,-94.73 48.57,-135.2 -13.14,-44.89 -46.24,-75.03 -82.37,-75.03 -43.79,0 -97.43,51.74 -138.16,100.32 21.82,-103.13 44.23,-289.14 -41.78,-404.05 -47.19,-63.02 -120.39,-95.79 -217.6,-97.47 l -0.25,-0.04"
             inkscape:connector-curvature="0" /><path
             id="path70"
             style="fill:#100f0d;fill-opacity:1;fill-rule:nonzero;stroke:none"
             d="m 3512.88,4375.6 c 6.62,-35.69 -8.68,-68.46 -34.2,-73.2 -25.5,-4.75 -51.56,20.36 -58.19,56.01 -6.63,35.69 8.68,68.47 34.19,73.21 25.51,4.74 51.56,-20.33 58.2,-56.02"
             inkscape:connector-curvature="0" /><path
             id="path72"
             style="fill:#100f0d;fill-opacity:1;fill-rule:nonzero;stroke:none"
             d="m 3606.4,4375.6 c -6.63,-35.69 8.67,-68.46 34.19,-73.2 25.52,-4.75 51.58,20.36 58.18,56.01 6.65,35.69 -8.68,68.47 -34.19,73.21 -25.5,4.74 -51.55,-20.33 -58.18,-56.02"
             inkscape:connector-curvature="0" /><path
             id="path74"
             style="fill:#100f0d;fill-opacity:1;fill-rule:nonzero;stroke:none"
             d="m 3545.01,3870.11 h 29.2578 v 121.047 H 3545.01 Z"
             inkscape:connector-curvature="0" /><path
             id="path76"
             style="fill:#100f0d;fill-opacity:1;fill-rule:nonzero;stroke:none"
             d="m 3559.64,3973.02 c -31.21,0 -61.66,9.08 -85.75,25.61 l 16.54,24.12 c 19.27,-13.21 43.85,-20.47 69.21,-20.47 25.35,0 49.93,7.26 69.2,20.47 l 16.52,-24.15 c -24.08,-16.5 -54.53,-25.58 -85.72,-25.58"
             inkscape:connector-curvature="0" /><path
             id="path78"
             style="fill:#100f0d;fill-opacity:1;fill-rule:nonzero;stroke:none"
             d="m 3126.02,3166.97 c -69.02,0 -125.17,56.16 -125.17,125.17 0,29.01 9.81,56.49 27.86,78.68 -18.05,22.22 -27.86,49.7 -27.86,78.71 0,45.69 25.2,87.54 64.35,109.37 -13.65,20.47 -21.01,44.48 -21.01,69.37 0,44.89 23.85,85.76 61.88,108.02 -6.53,15.36 -9.93,31.97 -9.93,48.83 0,69.04 56.15,125.17 125.16,125.17 6.48,0 12.91,-0.52 19.27,-1.5 14.97,43.68 53.56,76.38 99.96,83.28 l 4.29,-28.94 c -39.28,-5.84 -71.27,-35.84 -79.59,-74.63 l -3.26,-15.25 -15.02,4.23 c -8.3,2.37 -16.93,3.57 -25.65,3.57 -52.89,0 -95.91,-43.06 -95.91,-95.93 0,-16.9 4.46,-33.47 12.88,-47.92 l 8.34,-14.27 -15.18,-6.53 c -35.22,-15.18 -57.99,-49.74 -57.99,-88.13 0,-24.12 9.03,-47.18 25.43,-64.99 l 14.85,-16.1 -20.59,-7.55 c -37.69,-13.79 -63.03,-49.99 -63.03,-90.1 0,-25.84 10.17,-50.1 28.62,-68.28 l 10.57,-10.43 -10.57,-10.41 c -18.45,-18.2 -28.62,-42.44 -28.62,-68.27 0,-52.88 43.03,-95.91 95.92,-95.91 v -29.26"
             inkscape:connector-curvature="0" /><path
             id="path80"
             style="fill:#100f0d;fill-opacity:1;fill-rule:nonzero;stroke:none"
             d="m 3993.23,3166.97 v 29.26 c 52.88,0 95.91,43.03 95.91,95.91 0,25.83 -10.15,50.07 -28.58,68.27 l -10.54,10.41 10.54,10.43 c 18.43,18.21 28.58,42.44 28.58,68.28 0,40.11 -25.33,76.31 -63.03,90.1 l -20.62,7.55 14.89,16.13 c 16.42,17.78 25.48,40.84 25.48,64.96 0,38.36 -22.78,72.95 -57.99,88.13 l -15.15,6.53 8.29,14.23 c 8.39,14.49 12.84,31.1 12.84,47.96 0,52.87 -43.02,95.93 -95.86,95.93 -8.76,0 -17.41,-1.2 -25.69,-3.57 l -15.04,-4.23 -3.25,15.25 c -8.32,38.79 -40.32,68.79 -79.59,74.63 l 4.31,28.94 c 46.38,-6.9 84.95,-39.6 99.95,-83.28 6.35,0.98 12.81,1.5 19.31,1.5 68.97,0 125.13,-56.13 125.13,-125.17 0,-16.83 -3.43,-33.47 -9.92,-48.83 38.06,-22.26 61.89,-63.17 61.89,-108.02 0,-24.89 -7.38,-48.93 -21.02,-69.37 39.12,-21.86 64.33,-63.68 64.33,-109.37 0,-29.01 -9.81,-56.45 -27.84,-78.71 18.03,-22.23 27.84,-49.67 27.84,-78.68 0,-69.01 -56.16,-125.17 -125.17,-125.17"
             inkscape:connector-curvature="0" /><path
             id="path82"
             style="fill:#231f20;fill-opacity:1;fill-rule:nonzero;stroke:none"
             d="m 2457.16,4119.13 c 0.1,-0.07 0.2,-0.18 0.3,-0.29 2.68,1.82 5.37,3.61 8.02,5.47 3.9,2.74 7.77,5.51 11.6,8.32 0.35,0.3 0.59,1.39 0.36,1.65 -1.49,1.68 -3.09,3.28 -4.76,4.77 -0.27,0.26 -1.31,0.19 -1.52,-0.1 -1.86,-2.45 -3.62,-4.97 -5.38,-7.49 -1.46,-2.07 -2.87,-4.23 -4.33,-6.31 -1.41,-2.04 -2.86,-4.01 -4.29,-6.02 z m 445.05,366.02 c -27.37,27.37 -54.26,54.27 -81.5,81.56 -1.94,-2.15 -3.67,-4.16 -5.52,-6.05 -2.54,-2.63 -5.12,-5.22 -7.76,-7.74 -0.97,-0.91 -0.88,-1.46 0.02,-2.34 3.55,-3.5 7.05,-7.08 10.57,-10.62 1.88,-1.89 3.73,-3.83 5.62,-5.69 3.09,-3.06 6.22,-6.09 9.29,-9.2 2.63,-2.62 5.17,-5.36 7.81,-8.02 2.94,-2.92 6,-5.73 8.93,-8.69 3.39,-3.39 6.63,-6.97 10.04,-10.32 4.59,-4.57 9.33,-8.95 13.92,-13.47 4.27,-4.2 8.42,-8.54 12.69,-12.77 0.31,-0.33 1.44,-0.33 1.75,-0.04 2.54,2.41 4.93,4.93 7.45,7.33 2.11,2.05 4.32,3.91 6.69,6.06 z m -59,-58.38 c 0.84,0.94 1.57,1.89 2.41,2.73 3.69,3.65 7.4,7.26 11.14,10.88 0.75,0.73 0.94,1.24 0.09,2.08 -2.81,2.73 -5.54,5.58 -8.34,8.32 -2.71,2.66 -5.5,5.25 -8.18,7.95 -2.85,2.88 -5.57,5.88 -8.42,8.76 -3.82,3.87 -7.73,7.66 -11.59,11.46 -2.96,2.95 -5.9,5.91 -8.87,8.79 -1.82,1.79 -3.76,3.47 -5.54,5.3 -4.56,4.67 -9.02,9.41 -13.6,14.08 -4.7,4.74 -9.52,9.34 -14.22,14.09 -0.93,0.95 -1.52,0.95 -2.35,0 -1.29,-1.46 -2.66,-2.85 -3.96,-4.31 -2.96,-3.28 -5.9,-6.57 -8.84,-9.85 26.34,-26.35 53.26,-53.28 80.27,-80.28 z m -59.3,103.09 c 1.28,-1.39 2.19,-2.45 3.18,-3.47 2.62,-2.59 5.27,-5.22 7.92,-7.81 2.56,-2.52 5.16,-5 7.72,-7.52 2.49,-2.44 4.98,-4.85 7.41,-7.37 2.02,-2.04 3.9,-4.27 5.93,-6.31 2.61,-2.63 5.34,-5.15 7.97,-7.77 3.18,-3.18 6.28,-6.47 9.49,-9.64 3.04,-2.99 6.21,-5.84 9.23,-8.87 3.79,-3.76 7.45,-7.66 11.2,-11.46 3.34,-3.39 6.74,-6.71 10.08,-10.1 0.69,-0.7 1.16,-0.81 1.93,0 4.27,4.34 8.57,8.68 12.93,12.91 1.05,1.03 0.85,1.61 -0.1,2.52 -2.09,1.94 -4.09,3.98 -6.12,6.02 -2.05,2.01 -4.09,4.05 -6.13,6.1 -1.37,1.35 -2.76,2.66 -4.12,4.05 -1.98,2 -3.9,4.09 -5.91,6.09 -2,1.97 -4.12,3.83 -6.11,5.81 -2.02,2.04 -3.91,4.19 -5.94,6.23 -2,1.98 -4.13,3.84 -6.13,5.81 -2.76,2.73 -5.41,5.58 -8.15,8.32 -2.4,2.4 -4.9,4.71 -7.28,7.11 -2.58,2.6 -5.03,5.29 -7.6,7.92 -2.77,2.78 -5.63,5.51 -8.41,8.28 -2.33,2.34 -4.59,4.75 -6.96,7.05 -0.28,0.26 -1.29,0.22 -1.62,-0.07 -1.3,-1.14 -2.45,-2.41 -3.68,-3.62 -2.12,-2.11 -4.23,-4.27 -6.39,-6.35 -1.41,-1.34 -2.91,-2.59 -4.34,-3.86 z m 37.08,-95.76 c -1.78,-1.68 -3.51,-3.21 -5.14,-4.85 -2.05,-2.01 -3.99,-4.16 -6.03,-6.21 -1.37,-1.35 -2.87,-2.59 -4.24,-3.94 -1.57,-1.57 -3.02,-3.28 -4.6,-4.89 -2.46,-2.44 -5.01,-4.82 -7.46,-7.26 -2.71,-2.7 -5.36,-5.44 -8.05,-8.18 -1.86,-1.86 -3.76,-3.72 -5.61,-5.58 -2.66,-2.7 -5.28,-5.44 -7.95,-8.1 -2.62,-2.63 -127.34,-130.13 -129.96,-132.76 -1.98,-1.97 -3.91,-3.98 -5.88,-5.95 -2.04,-2 -4.11,-4.01 -6.16,-6.06 -2.05,-2.04 -4.07,-4.08 -6.13,-6.13 -1.97,-1.93 -3.98,-3.83 -5.93,-5.8 -2.65,-2.66 -5.26,-5.36 -7.9,-8.07 -1.48,-1.53 -2.97,-3.02 -4.45,-4.52 -1.93,-1.93 -3.83,-3.83 -5.77,-5.76 -2.02,-1.98 -4.1,-3.87 -6.09,-5.88 -2.03,-2.01 -3.96,-4.16 -5.99,-6.17 -2,-2.01 -4.1,-3.9 -6.11,-5.87 -2.1,-2.08 -4.12,-4.24 -6.22,-6.32 -1.88,-1.86 -3.48,-3.57 -3.37,-6.67 0.29,-8.14 0.1,-16.28 0.1,-24.38 0,-0.51 0.07,-0.99 0.13,-1.71 2.17,2.15 4.15,4.04 6.07,5.98 3,3.06 5.92,6.2 8.95,9.19 4.43,4.42 8.98,8.73 13.41,13.18 3.63,3.61 7.13,7.41 10.76,11.06 2.77,2.77 5.68,5.4 8.46,8.17 3.57,3.58 7.02,7.3 10.6,10.88 3.86,3.83 7.85,7.59 11.72,11.45 3.62,3.62 7.13,7.34 10.76,10.95 4.43,4.42 8.97,8.72 13.4,13.17 3.62,3.62 129.15,132.25 132.77,135.87 4.38,4.38 8.87,8.65 13.26,13.02 3.67,3.69 7.21,7.49 10.87,11.13 3.7,3.73 7.49,7.34 11.25,10.99 0.78,0.73 1.23,1.46 0.2,2.41 -0.94,0.84 -1.78,1.82 -2.67,2.73 -2,2.08 -3.97,4.16 -6.01,6.21 -1.58,1.57 -3.25,3.03 -4.99,4.67 z m -329.9,-200.27 c 0.93,-0.08 1.33,-0.11 1.73,-0.11 8.92,0 17.84,-0.08 26.76,0.07 0.95,0 2.03,0.84 2.81,1.57 2.18,2.01 4.22,4.16 6.34,6.24 2.43,2.41 4.9,4.74 7.31,7.15 2.76,2.78 5.47,5.59 8.23,8.36 1.32,1.35 2.71,2.63 4.04,3.94 2.6,2.66 5.15,5.33 7.75,7.96 2.57,2.62 5.17,5.18 7.77,7.77 2.14,2.11 4.31,4.2 6.44,6.35 1.94,1.93 3.82,3.98 5.75,5.91 1.9,1.94 125.88,128.78 127.82,130.68 2.05,2.01 4.17,3.91 6.19,5.95 2.08,2.08 4.07,4.23 6.13,6.35 2.64,2.66 5.31,5.33 7.97,7.99 1.37,1.35 2.74,2.78 4.12,4.12 2.01,1.98 4.05,3.91 6.04,5.92 2.06,2.04 4.09,4.16 6.15,6.24 1.99,2 4.02,3.98 6.01,5.98 2.02,2.01 4,4.09 6.02,6.1 2.01,2 4.05,4.01 6.09,5.98 2.06,2.04 4.16,3.98 6.19,6.02 1.62,1.64 3.17,3.32 4.8,5.04 -0.47,0.58 -0.81,1.16 -1.26,1.6 -2.02,1.97 -4.11,3.87 -6.1,5.88 -1.98,2 -3.84,4.12 -5.82,6.09 -1.09,1.13 -2.17,0.91 -3.15,-0.29 -0.7,-0.84 -1.49,-1.64 -2.28,-2.44 -3.3,-3.29 -6.63,-6.57 -9.92,-9.89 -1.88,-1.86 -3.66,-3.87 -5.54,-5.77 -2.16,-2.15 -4.41,-4.23 -6.58,-6.39 -1.88,-1.86 -3.69,-3.83 -5.56,-5.69 -2.16,-2.19 -4.38,-4.3 -6.56,-6.46 -1.89,-1.89 -3.73,-3.79 -5.62,-5.69 -2.73,-2.7 -5.53,-5.33 -8.25,-8.07 -3,-3.02 -127.96,-131.04 -130.97,-134.07 -3.31,-3.28 -6.74,-6.46 -10.06,-9.78 -2.42,-2.41 -4.72,-4.96 -7.11,-7.41 -2.23,-2.26 -4.52,-4.49 -6.79,-6.75 -1.85,-1.82 -3.69,-3.68 -5.55,-5.51 -2.12,-2.08 -4.28,-4.09 -6.37,-6.16 -1.92,-1.94 -3.74,-3.98 -5.67,-5.88 -2.05,-2.05 -4.19,-3.94 -6.22,-5.99 -2,-2 -3.88,-4.12 -5.88,-6.09 -3.28,-3.29 -6.65,-6.42 -9.93,-9.67 -3.73,-3.72 -7.4,-7.44 -11.12,-11.17 -1.91,-1.9 -3.87,-3.76 -6.15,-5.98 z m -8.67,-10.4 c -1.62,-4.89 -3.24,-9.86 -4.89,-14.78 -1.72,-5.19 -3.49,-10.33 -5.21,-15.51 -0.78,-2.37 -1.44,-4.82 -2.26,-7.23 -1.4,-4.12 -2.89,-8.25 -4.34,-12.33 -0.97,-2.78 -1.97,-5.51 -2.88,-8.29 -0.19,-0.58 -0.31,-1.49 0,-1.89 0.89,-1.13 1.99,-2.15 3.05,-3.18 3.25,-3.14 6.56,-6.24 9.76,-9.45 3.74,-3.72 7.33,-7.59 11.07,-11.35 4.33,-4.31 8.88,-8.43 13.08,-12.88 1.63,-1.72 2.69,-2.7 5.22,-1.46 3.03,1.5 6.39,2.33 9.62,3.39 5.63,1.87 11.29,3.66 16.92,5.51 4.69,1.57 9.34,3.25 14.03,4.79 4.52,1.49 9.06,2.91 13.6,4.34 1.72,0.55 2.73,1.27 2.7,3.46 -0.16,10.33 -0.07,20.66 -0.08,30.98 0,0.55 -0.06,1.06 -0.1,1.72 -14.7,0 -29.28,0 -44.14,0 0,14.78 0,29.45 0,44.16 -11.83,0 -23.37,0 -35.15,0 z m 345.71,350.4 c 27.17,-27.19 54.06,-54.08 81.3,-81.34 1.07,1.28 2.07,2.51 3.16,3.68 1.94,2.08 3.91,4.13 5.93,6.13 2.05,2.05 4.19,4.02 6.23,6.06 1.97,2.01 3.84,4.09 5.82,6.06 3.3,3.25 6.69,6.46 10,9.74 2.49,2.45 4.79,5.11 7.38,7.48 3.19,2.89 5.63,6.24 7.33,10.18 1.79,4.13 2.29,8.47 1.72,12.85 -0.31,2.37 -0.89,4.82 -1.89,6.97 -1.55,3.36 -3.45,6.57 -6.39,9.09 -2.13,1.82 -3.91,4.05 -5.9,6.02 -2.55,2.55 -5.2,5 -7.73,7.55 -2.57,2.56 -5,5.29 -7.56,7.88 -3.97,4.02 -7.96,8.03 -11.99,11.97 -3.87,3.8 -7.81,7.52 -11.72,11.28 -3.22,3.07 -7.23,4.82 -11.43,5.77 -5.06,1.16 -10.16,0.65 -15.01,-1.39 -1.57,-0.66 -3.15,-1.42 -4.49,-2.45 -2.14,-1.67 -4.11,-3.57 -6.07,-5.43 -4.44,-4.27 -8.85,-8.54 -13.23,-12.88 -4.04,-3.98 -8.01,-8.03 -12.04,-12.05 -4.44,-4.37 -8.91,-8.75 -13.42,-13.17 z m -51.62,-95.76 c -0.61,-0.66 -1.53,-1.82 -2.59,-2.88 -2.63,-2.59 -5.36,-5.11 -8,-7.7 -2.75,-2.74 -5.44,-5.51 -8.17,-8.25 -1.91,-1.9 -3.87,-3.76 -5.77,-5.69 -2.69,-2.7 -5.35,-5.44 -8.04,-8.14 -1.31,-1.31 -2.68,-2.59 -3.99,-3.9 -2.14,-2.12 -4.24,-4.31 -6.38,-6.42 -1.92,-1.94 -3.91,-3.8 -5.8,-5.73 -2.59,-2.63 -5.11,-5.37 -7.69,-8 -2.01,-2.08 -4.09,-4.05 -6.12,-6.09 -2,-2.01 -3.97,-4.02 -5.96,-6.02 -1.45,-1.46 -2.93,-2.89 -4.38,-4.31 -2.57,-2.55 -127.19,-130.06 -129.74,-132.61 -2.03,-2.04 -4.06,-4.05 -6.09,-6.06 -2.11,-2.08 -4.22,-4.16 -6.32,-6.24 -1.94,-1.93 -3.88,-3.87 -5.81,-5.8 -2.08,-2.08 -4.15,-4.2 -6.24,-6.32 -1.94,-1.93 -3.93,-3.79 -5.86,-5.76 -2.65,-2.67 -5.24,-5.4 -7.92,-8.07 -1.91,-1.89 -3.99,-3.65 -5.84,-5.58 -0.85,-0.91 -1.87,-2.12 -1.88,-3.21 -0.14,-11.57 -0.08,-23.1 -0.12,-34.67 0,-0.98 0.38,-1.2 1.32,-1.2 11.3,0.03 22.6,0 33.91,0.03 0.76,0 1.76,0.08 2.26,0.51 1.94,1.79 3.72,3.76 5.59,5.66 2.57,2.59 5.18,5.18 7.77,7.77 1.94,1.94 3.89,3.91 5.82,5.84 2.57,2.63 5.12,5.26 7.71,7.85 2.06,2.12 4.17,4.16 6.25,6.24 2.54,2.52 5.07,5.11 7.62,7.63 2.11,2.11 4.22,4.23 6.34,6.31 2.07,2.04 4.17,4.05 6.24,6.09 2.42,2.37 4.84,4.78 7.23,7.19 2.6,2.67 127.22,130.28 129.82,132.91 2.07,2.08 4.16,4.16 6.24,6.24 2.55,2.52 5.09,5.07 7.65,7.62 2.08,2.08 4.19,4.13 6.27,6.21 2,2 3.96,4.05 5.96,6.06 2.04,2.04 4.09,4.05 6.15,6.05 2.11,2.08 4.26,4.13 6.35,6.25 1.95,1.93 3.84,3.94 5.77,5.91 1.95,2 3.89,4.01 5.89,5.94 2.44,2.38 4.94,4.68 7.36,7.08 0.22,0.22 0.21,1.03 0,1.24 -1.06,1.17 -2.21,2.3 -3.35,3.4 -2.07,1.97 -4.21,3.87 -6.24,5.91 -2.8,2.77 -5.51,5.62 -8.29,8.43 -1.82,1.82 -3.7,3.61 -5.53,5.44 -2.15,2.15 -4.23,4.34 -6.42,6.46 -2.16,2.08 -4.4,4.05 -6.98,6.38 z m -348.53,-388.43 c 0.38,1.1 0.66,1.87 0.9,2.63 1.45,4.78 2.86,9.6 4.34,14.38 1.74,5.62 3.53,11.21 5.31,16.82 1.06,3.33 2.17,6.61 3.22,9.93 1.25,3.94 2.42,7.96 3.71,11.9 1.69,5.22 3.47,10.4 5.21,15.58 1.72,5.14 3.42,10.29 5.13,15.4 1.71,5.15 3.41,10.29 5.13,15.43 1.67,5 3.36,9.97 5.04,14.97 1.07,3.17 2.14,6.35 3.19,9.56 1.31,4.01 2.6,7.99 3.88,12.01 1,3.1 3.32,5.18 5.54,7.33 3.27,3.21 6.5,6.46 9.76,9.71 2.62,2.59 5.25,5.21 7.88,7.84 3.1,3.07 6.19,6.21 9.28,9.27 2.81,2.81 5.61,5.62 8.41,8.43 2.79,2.78 5.59,5.58 8.37,8.39 3.13,3.14 6.26,6.28 9.39,9.42 2.5,2.52 5.01,5 7.52,7.52 3.22,3.21 6.44,6.46 9.67,9.67 2.62,2.62 5.27,5.22 7.89,7.81 2.52,2.52 5.03,5.03 7.54,7.55 2.53,2.56 5.06,5.07 7.6,7.63 3.78,3.79 129.62,132.5 133.41,136.3 3.25,3.21 6.52,6.46 9.77,9.7 3.04,3.04 6.06,6.06 9.09,9.13 2.75,2.73 5.52,5.47 8.27,8.21 3.09,3.1 6.18,6.24 9.27,9.34 3.26,3.25 6.53,6.5 9.78,9.74 3.74,3.8 7.44,7.63 11.21,11.39 3.04,3.07 6.15,6.02 9.21,9.05 2.62,2.59 5.21,5.22 7.82,7.85 3.07,3.06 6.16,6.16 9.21,9.27 2.76,2.77 5.46,5.61 8.23,8.35 3.09,3.1 6.25,6.13 9.34,9.2 3.27,3.24 6.48,6.57 9.75,9.85 3.09,3.07 6.24,6.09 9.34,9.16 2.44,2.41 4.85,4.85 7.27,7.26 3.14,3.14 6.3,6.24 9.41,9.42 4.56,4.63 8.98,9.41 13.66,13.94 3.82,3.68 7.67,7.44 12,10.43 3.86,2.67 8.39,4.38 13.24,4.79 1.85,0.14 3.72,0.8 5.53,0.65 3.79,-0.33 7.69,-0.55 11.28,-1.68 5.73,-1.78 10.87,-4.78 15.02,-9.34 2.93,-3.25 6.24,-6.09 9.34,-9.19 2.64,-2.63 5.2,-5.37 7.82,-8.03 2.4,-2.41 4.85,-4.82 7.25,-7.23 2.77,-2.81 5.47,-5.65 8.27,-8.43 3.16,-3.1 6.46,-6.09 9.59,-9.27 4.07,-4.09 7.64,-8.5 9.6,-14.16 1.8,-5.14 3.02,-10.4 2.36,-15.8 -0.59,-4.85 -1.64,-9.63 -4.11,-14.08 -2.74,-4.97 -6.55,-8.91 -10.51,-12.78 -3.81,-3.72 -7.43,-7.62 -11.19,-11.38 -2.58,-2.59 -5.28,-5.07 -7.87,-7.67 -3.15,-3.17 -6.22,-6.42 -9.37,-9.59 -2.57,-2.59 -5.26,-5.04 -7.84,-7.63 -2.68,-2.66 -5.27,-5.44 -7.93,-8.1 -2.36,-2.37 -4.8,-4.67 -7.16,-7.04 -2.17,-2.16 -4.26,-4.42 -6.43,-6.57 -2.55,-2.56 -5.18,-5 -7.73,-7.56 -2.72,-2.7 -5.37,-5.51 -8.09,-8.25 -1.98,-1.96 -4.05,-3.86 -6.04,-5.83 -1.94,-1.9 -3.82,-3.87 -5.75,-5.77 -2.15,-2.19 -4.33,-4.31 -6.49,-6.46 -2.43,-2.44 -4.85,-4.85 -7.27,-7.3 -2.52,-2.51 -5.05,-5.07 -7.56,-7.62 -2.78,-2.81 -5.53,-5.66 -8.34,-8.47 -3.09,-3.07 -6.23,-6.06 -9.32,-9.12 -2.64,-2.63 -5.23,-5.29 -7.85,-7.92 -2.5,-2.52 -5.02,-5.04 -7.52,-7.56 -3.26,-3.28 -128.55,-131.52 -131.83,-134.76 -2.98,-2.96 -6.05,-5.84 -9.02,-8.8 -3.38,-3.39 -6.66,-6.93 -10.05,-10.33 -3.03,-3.02 -6.18,-5.94 -9.21,-8.97 -3.34,-3.32 -6.57,-6.75 -9.89,-10.11 -2.36,-2.37 -4.78,-4.71 -7.16,-7.04 -2.74,-2.74 -5.45,-5.44 -8.18,-8.18 -2.04,-2.01 -4.11,-3.97 -6.11,-6.02 -2.66,-2.7 -5.24,-5.43 -7.9,-8.14 -2.35,-2.37 -4.79,-4.63 -7.15,-7 -2.76,-2.74 -5.47,-5.55 -8.23,-8.29 -2.57,-2.59 -5.22,-5.07 -7.79,-7.66 -2.54,-2.52 -5.02,-5.15 -7.56,-7.67 -2.59,-2.59 -5.23,-5.1 -7.84,-7.66 -1.31,-1.31 -2.5,-2.73 -3.92,-3.87 -1.34,-1.09 -2.8,-2.18 -4.4,-2.73 -5.78,-2.05 -11.65,-3.83 -17.48,-5.73 -5.84,-1.86 -11.68,-3.76 -17.5,-5.7 -5.04,-1.64 -10.06,-3.35 -15.1,-5.03 -5.3,-1.79 -10.61,-3.54 -15.91,-5.29 -3.42,-1.13 -6.83,-2.3 -10.25,-3.4 -5.66,-1.82 -11.33,-3.64 -16.99,-5.43 -3.37,-1.1 -6.72,-2.23 -10.09,-3.29 -5.39,-1.71 -10.78,-3.43 -16.18,-5.11 -3.78,-1.2 -7.57,-2.33 -11.33,-3.54 -2.57,-0.8 -5.11,-1.71 -7.81,-2.63"
             inkscape:connector-curvature="0" /><path
             id="path84"
             style="fill:#100f0d;fill-opacity:1;fill-rule:nonzero;stroke:none"
             d="m 3122.84,3833.14 c -98.09,48.13 -268.41,162.75 -307.09,389.81 l 28.84,4.93 c 36.49,-214.25 198.07,-322.81 291.13,-368.47 l -12.88,-26.27"
             inkscape:connector-curvature="0" /><path
             id="path86"
             style="fill:#100f0d;fill-opacity:1;fill-rule:nonzero;stroke:none"
             d="m 3067.25,3670.31 c -95.01,45.87 -323.49,185.86 -392.79,494.73 l 28.55,6.39 c 66.51,-296.39 285.77,-430.76 376.96,-474.77 l -12.72,-26.35"
             inkscape:connector-curvature="0" /><path
             id="path88"
             style="fill:#100f0d;fill-opacity:1;fill-rule:nonzero;stroke:none"
             d="m 2715.05,4485.19 c -86.31,0 -156.52,-75.98 -156.52,-169.36 0,-0.29 0.02,-0.55 0.02,-0.84 5.94,4.81 11.88,9.63 17.09,15.25 2.77,2.99 6.06,5.07 9.59,6.35 1.36,1.5 2.91,2.85 4.6,4.02 10.07,61.81 57.07,109.69 114.91,114.8 4.52,6.57 9.01,13.14 13.55,19.67 1.91,3.76 4.69,7.04 8.38,9.6 -3.84,0.29 -7.71,0.51 -11.62,0.51"
             inkscape:connector-curvature="0" /><path
             id="path90"
             style="fill:#100f0d;fill-opacity:1;fill-rule:nonzero;stroke:none"
             d="m 2841.7,4415.09 c -0.02,-0.04 -0.03,-0.04 -0.06,-0.08 -6.33,-6.46 -13.41,-11.97 -20.14,-17.99 -0.66,-0.51 -1.25,-1.09 -1.82,-1.71 14.23,-22.59 22.62,-49.96 22.62,-79.48 0,-77.26 -57.09,-140.1 -127.25,-140.1 -30.23,0 -57.97,11.72 -79.82,31.17 -1.86,-2.19 -4,-4.13 -6.38,-5.73 -5.88,-3.91 -11.64,-7.96 -17.44,-11.97 27.63,-26.53 63.88,-42.74 103.64,-42.74 86.3,0 156.51,75.98 156.51,169.37 0,37.07 -11.11,71.34 -29.86,99.26"
             inkscape:connector-curvature="0" /><path
             id="path92"
             style="fill:#100f0d;fill-opacity:1;fill-rule:nonzero;stroke:none"
             d="m 4176.94,4009.77 c -62.15,-76.61 -138.71,-124.01 -192.47,-150.36 l 12.89,-26.27 c 53.17,26.09 127.5,71.74 190.63,144.22 -3.35,10.91 -7.44,21.57 -11.05,32.41"
             inkscape:connector-curvature="0" /><path
             id="path94"
             style="fill:#100f0d;fill-opacity:1;fill-rule:nonzero;stroke:none"
             d="m 4238.5,3839.96 c -74.7,-76.48 -152.58,-121.26 -198.3,-143.3 l 12.73,-26.35 c 45.87,22.12 122.8,66.2 197.94,140.6 -4.16,9.13 -8.91,18.87 -12.37,29.05"
             inkscape:connector-curvature="0" /><path
             id="path96"
             style="fill:#100f0d;fill-opacity:1;fill-rule:nonzero;stroke:none"
             d="m 4257.84,4263.93 c 8.5,3.62 17.11,6.94 25.84,10.04 -3.76,13.24 -5.8,27.3 -5.8,41.86 0,77.25 57.1,140.09 127.25,140.09 59.26,0 109.22,-44.81 123.3,-105.28 4.75,2.48 9.49,5.07 14.16,7.81 4.45,2.63 8.83,3.83 12.99,3.98 -18.76,70.79 -79.08,122.76 -150.45,122.76 -86.31,0 -156.52,-75.98 -156.52,-169.36 0,-18.36 2.77,-36.06 7.81,-52.63 0.44,0.26 0.91,0.51 1.42,0.73"
             inkscape:connector-curvature="0" /><path
             id="path98"
             style="fill:#100f0d;fill-opacity:1;fill-rule:nonzero;stroke:none"
             d="m 4417.09,3548.68 375.4,123.05 c 35.25,11.61 54.45,49.63 42.85,84.92 l -181.74,551.88 c -11.6,35.29 -49.63,54.45 -84.92,42.84 l -375.39,-123.05 c -35.29,-11.61 -54.45,-49.63 -42.85,-84.92 l 181.74,-551.88 c 11.6,-35.29 49.62,-54.45 84.91,-42.84 z m 382.88,105.5 -378.5,-124.04 c -44.37,-14.63 -92.21,9.53 -106.85,53.9 l -182.71,554.98 c -14.64,44.37 9.48,92.22 53.89,106.85 l 378.5,124.04 c 44.38,14.63 92.22,-9.49 106.86,-53.9 l 182.71,-554.98 c 14.64,-44.37 -9.52,-92.22 -53.9,-106.85"
             inkscape:connector-curvature="0" /><path
             id="path100"
             style="fill:#100f0d;fill-opacity:1;fill-rule:nonzero;stroke:none"
             d="m 4274.52,4817.71 c -192.76,192.72 -448.93,298.87 -721.51,298.87 -272.53,0 -528.77,-106.15 -721.47,-298.87 -93.54,-93.53 -166.63,-201.99 -217.16,-320.04 12.53,7.88 26,14.38 40.16,19.19 158.52,337.38 501.64,571.55 898.47,571.55 394.9,0 736.69,-231.95 896.23,-566.77 13.18,-3.21 25.88,-7.84 37.96,-13.79 -50.25,114.11 -121.85,218.99 -212.68,309.86 z M 2959.05,3292.14 c 0,3.28 0.08,6.49 0.25,9.7 -239.89,179.77 -396.07,465.5 -398.37,787.15 l -2.3,-0.77 c -4.64,-1.49 -9.28,-3.02 -13.92,-4.56 -3.14,-1.06 -6.31,-2.08 -9.49,-3.14 l -2.38,-0.8 c 4.22,-266.36 109.87,-516.11 298.7,-704.96 40.58,-40.58 84,-77.3 129.76,-110.03 -1.5,8.91 -2.25,18.1 -2.25,27.41 z m 1382.03,169.72 c -6.46,0 -12.95,1.5 -18.83,4.49 -0.77,0.37 -1.5,0.77 -2.26,1.24 -47.55,-57.95 -101.56,-110.46 -160.9,-156.33 0.77,-6.28 1.1,-12.66 1.1,-19.12 0,-5.69 -0.3,-11.28 -0.84,-16.79 40.43,30 78.93,63.17 115.17,99.41 28.39,28.39 54.88,58.13 79.41,89.11 -4.16,-1.35 -8.54,-2.01 -12.85,-2.01"
             inkscape:connector-curvature="0" /><path
             id="path102"
             style="fill:#100f0d;fill-opacity:1;fill-rule:nonzero;stroke:none"
             d="m 4333.89,4219.92 v 0 c -1.64,5 1.06,10.4 6.09,12.04 l 100.65,33.22 c 5,1.64 10.37,-1.1 12.05,-6.1 v 0 c 1.64,-5 -1.1,-10.36 -6.1,-12.04 l -100.65,-33.17 c -5,-1.65 -10.4,1.06 -12.04,6.05"
             inkscape:connector-curvature="0" /><path
             id="path104"
             style="fill:#100f0d;fill-opacity:1;fill-rule:nonzero;stroke:none"
             d="m 4618.24,3674.84 c 0,-18.25 -14.81,-33.07 -33.1,-33.07 -18.25,0 -33.06,14.82 -33.06,33.07 0,18.28 14.81,33.06 33.06,33.06 18.29,0 33.1,-14.78 33.1,-33.06"
             inkscape:connector-curvature="0" /></g></g></g></g><text
     xml:space="preserve"
     style="font-style:normal;font-variant:normal;font-weight:normal;font-stretch:normal;font-size:333.33334351px;line-height:1.25;font-family:sans-serif;-inkscape-font-specification:'sans-serif, Normal';font-variant-ligatures:normal;font-variant-caps:normal;font-variant-numeric:normal;font-feature-settings:normal;text-align:start;letter-spacing:0px;word-spacing:0px;writing-mode:lr-tb;text-anchor:start;fill:#000000;fill-opacity:1;stroke:none;stroke-width:0.99999994"
     x="226.49741"
     y="1082.4961"
     id="text5173"><tspan
       sodipodi:role="line"
       id="tspan5175"
       x="226.49741"
       y="1082.4961"
       style="font-style:normal;font-variant:normal;font-weight:normal;font-stretch:normal;font-size:266.66665649px;font-family:sans-serif;-inkscape-font-specification:'sans-serif, Normal';font-variant-ligatures:normal;font-variant-caps:normal;font-variant-numeric:normal;font-feature-settings:normal;text-align:start;writing-mode:lr-tb;text-anchor:start;stroke-width:0.99999994">ᚑᚌᚔ</tspan></text>
</svg>